<?xml version="1.0" encoding="UTF-8" standalone="no" ?>
<!DOCTYPE svg PUBLIC "-//W3C//DTD SVG 1.1//EN" "http://www.w3.org/Graphics/SVG/1.1/DTD/svg11.dtd">
<svg xmlns="http://www.w3.org/2000/svg" xmlns:xlink="http://www.w3.org/1999/xlink" version="1.1" width="256" height="256" viewBox="0 0 640 640" xml:space="preserve">
<desc>Created with Fabric.js 4.6.0</desc>
<defs>
</defs>
<g transform="matrix(1.15 0 0 1.15 322.22 322.22)" id="Qv_OIfyADsj_JG0nbfmXY"  >
<path style="stroke: rgb(242,23,10); stroke-width: 0; stroke-dasharray: none; stroke-linecap: butt; stroke-dashoffset: 0; stroke-linejoin: miter; stroke-miterlimit: 4; fill: rgb(255,255,255); fill-rule: nonzero; opacity: 1;" vector-effect="non-scaling-stroke"  transform=" translate(0, 0)" d="M 0 -279.42157 C 154.24071 -279.42157 279.42157 -154.24069999999998 279.42157 0 C 279.42157 154.24071 154.24069999999998 279.42157 0 279.42157 C -154.24071 279.42157 -279.42157 154.24069999999998 -279.42157 0 C -279.42157 -154.24071 -154.24069999999998 -279.42157 0 -279.42157 z" stroke-linecap="round" />
</g>
<g transform="matrix(1 0 0 1 310.12 320)" id="h_aOS3wvjgL6wcxLocwOQ"  >
<path style="stroke: none; stroke-width: 1; stroke-dasharray: none; stroke-linecap: butt; stroke-dashoffset: 0; stroke-linejoin: miter; stroke-miterlimit: 4; fill: rgb(0,0,0); fill-rule: nonzero; opacity: 1;" vector-effect="non-scaling-stroke"  transform=" translate(-268.15, -173.7)" d="M 122.12914 235.28364 L 19.16729000000001 286.76455999999996 C 14.488910000000008 289.10374999999993 8.872020000000008 288.47031 4.832120000000009 285.14790999999997 C 0.7922200000000084 281.82552 -0.9138099999999918 276.43661999999995 0.47807000000000865 271.39462 L 27.44616000000001 173.70409999999998 L 1.8040100000000088 76.10692999999998 C 0.1611500000000088 69.85399999999997 2.330110000000009 63.21829999999998 7.348930000000009 59.142829999999975 C 12.367750000000008 55.067349999999976 19.30735000000001 54.306559999999976 25.08996000000001 57.19785999999998 L 122.12915000000001 105.71744999999999 L 136.75212000000002 113.02892999999999 C 161.38028000000003 47.035979999999995 225.00650000000002 0.000009999999988963282 299.55179 0.000009999999988963282 L 299.55179 -1.1036719024045023e-14 C 367.75277 -1.1036719024045023e-14 472.91546 43.69249999999999 527.95519 103.42649999999999 L 491.19749 124.23817999999999 L 403.83049 173.70409999999998 L 536.3057 248.70965999999999 C 484.2164 308.52893 371.38329999999996 347.40822 299.55179 347.40822 C 222.97272999999998 347.40822 157.91664999999998 297.77072999999996 134.82403 228.93618999999995 z M 374.8544 92.90321 C 374.8544 108.622 387.61168 121.37929 403.33048 121.37929 C 419.04927000000004 121.37929 431.80656000000005 108.62201 431.80656000000005 92.90321 C 431.80656000000005 77.18442 419.04928000000007 64.42713 403.33048 64.42713 C 387.61169 64.42713 374.8544 77.18441 374.8544 92.90321 z" stroke-linecap="round" />
</g>
</svg>